<svg id="Layer_1" xmlns="http://www.w3.org/2000/svg" viewBox="0 0 38 40">
    <style>
        .st0{fill:#fff}
    </style>
    <path class="st0" d="M33.5 4.2c-1-.9-4.9-3.7-13.7-3.8 0 0-10.3-.6-15.4 4C1.6 7.2.6 11.3.5 16.4.6 21.5.4 31 9.6 33.6v3.9s-.1 1.6 1 1.9c1.3.4 2-.8 3.2-2.1.7-.7 1.6-1.8 2.3-2.6 6.3.5 11.1-.7 11.7-.9 1.3-.4 8.4-1.3 9.6-10.9 1.2-9.6-.6-15.8-3.9-18.7zm1.1 18.2c-1 8-6.8 8.5-7.9 8.8-.5.1-4.7 1.2-10 .9 0 0-4 4.8-5.2 6-.2.2-.4.3-.6.2-.2-.1-.3-.3-.3-.7v-6.5c-7.8-2.2-7.3-10.3-7.2-14.5.1-4.2.9-7.7 3.3-10.1 4.3-3.9 13-3.3 13-3.3 7.4 0 11 2.3 11.8 3 2.7 2.4 4.1 8 3.1 16.2z"/>
    <path class="st0" d="M23.5 16.7c-.3 0-.5-.2-.5-.5-.1-1.7-.9-2.5-2.5-2.6-.3 0-.5-.2-.5-.5s.2-.5.5-.5c2.1.1 3.3 1.3 3.4 3.5.1.4-.1.6-.4.6z"/>
    <path class="st0" d="M26 17.6c-.3 0-.5-.2-.5-.5 0-1.7-.4-3.1-1.5-4.2-1-1.1-2.4-1.7-4.3-1.9-.3 0-.5-.3-.5-.5 0-.3.3-.5.5-.5 2.1.2 3.8.9 5 2.2 1.2 1.3 1.8 2.9 1.7 4.9.1.2-.1.5-.4.5z"/>
    <path class="st0" d="M28.6 18.6c-.3 0-.5-.2-.5-.5 0-3-.9-5.3-2.7-7.1-1.7-1.7-4-2.6-6.6-2.6-.3 0-.5-.2-.5-.5s.2-.5.5-.5c2.9 0 5.3 1 7.2 2.9 1.9 1.9 2.9 4.5 3 7.8.1.3-.1.5-.4.5zM20.6 22.8s.7.1 1.1-.4l.7-.9c.4-.5 1.2-.7 2-.3.5.3 1.3.8 1.8 1.2.6.4 1.7 1.3 1.7 1.4.5.5.7 1.1.3 1.8-.4.7-.9 1.3-1.5 1.9-.5.4-1 .7-1.5.7H25c-.2 0-.4 0-.7-.1-.8-.2-2.1-.8-4.2-2-1.4-.8-2.6-1.6-3.6-2.4-.5-.4-1.1-.9-1.6-1.4l-.1-.1-.1-.1-.1-.1-.1-.1c-.5-.5-1-1.1-1.4-1.6-.8-1-1.6-2.2-2.4-3.6-1.2-2.2-1.7-3.5-2-4.2-.1-.2-.1-.4-.1-.7v-.2c.1-.5.3-1 .7-1.5.6-.6 1.2-1.1 1.9-1.5.7-.4 1.4-.2 1.8.3 0 0 .9 1.1 1.4 1.7.4.5.9 1.4 1.2 1.8.5.8.2 1.7-.3 2l-.9.7c-.5.4-.4 1.1-.4 1.1s1.6 5.3 6.6 6.6z"/>
</svg>
